<svg data-v-0dd9719b="" version="1.0" xmlns="http://www.w3.org/2000/svg" xmlns:xlink="http://www.w3.org/1999/xlink" width="100%" height="100%" viewBox="0 0 340.000000 250.000000" preserveAspectRatio="xMidYMid meet" color-interpolation-filters="sRGB" style="margin: auto;"> <rect data-v-0dd9719b="" x="0" y="0" width="100%" height="100%" fill="#fff" fill-opacity="1" class="background"></rect> <rect data-v-0dd9719b="" x="0" y="0" width="100%" height="100%" fill="url(#watermark)" fill-opacity="1" class="watermarklayer"></rect> <g data-v-0dd9719b="" fill="#333" class="icon-text-wrapper icon-svg-group iconsvg" transform="translate(56.06500244140625,94.94770812988281)"><g class="iconsvg-imagesvg" transform="translate(0,0)"><g><rect fill="#333" fill-opacity="0" stroke-width="2" x="0" y="0" width="60" height="60.10458197263238" class="image-rect"></rect> <svg x="0" y="0" width="60" height="60.10458197263238" filtersec="colorsb7367864123" class="image-svg-svg primary" style="overflow: visible;"><svg xmlns="http://www.w3.org/2000/svg" viewBox="-0.030001163482666016 0 178.11000061035156 178.42001342773438"><path d="M43.29 91.8a45 45 0 0 0-2.58 14.74c-.27 12.27 4.21 22.78 12.56 31.62s18.9 15.17 30 20.24c18.13 8.26 37.26 13.28 56.67 17.39 3.47.74 6.95 1.45 10.39 2.55h-3.6q-71.73 0-143.45.08c-2.37 0-3.31-.36-3.31-3.08Q.12 100.87 0 26.4c0-2.22.53-2.66 2.71-2.22 14.52 2.94 29.29 4.69 43.74 7.68 11.17 2.3 22.29 4.73 32.76 9.44a30.23 30.23 0 0 1 7.66 4.63c6.23 5.42 6.62 11.19 1.24 17.57-3.68 4.36-8.27 7.7-12.59 11.34-6 5-10.57 11-12.08 19-1.33 7 1.1 12.95 5.42 18.23C74.49 118.9 82 123.2 90 126.74c13.85 6.15 28.46 9.73 43.28 12.51a379.4 379.4 0 0 0 43 5.52c1.25.09 1.79.47 1.78 1.77v15.24c0 1.64-.88 1.73-2.09 1.59-4.71-.51-9.44-.91-14.14-1.54-10.38-1.38-20.71-3.06-31-5.3-16.63-3.64-32.87-8.45-48-16.42-11.39-6-21.5-13.6-29-24.27a60.14 60.14 0 0 1-9.62-22.54c-.1-.46.01-1.02-.92-1.5z" fill="#27c3c5"></path><path d="M2 .61C2.85-.22 3.8.1 4.66.1Q90 .06 175.33 0c2.29 0 2.75.78 2.75 2.89q-.09 59.1 0 118.19c0 1.9-.32 2.61-2.5 2.41-15.4-1.45-30.83-2.7-46.15-4.92-10.53-1.53-21.08-3.2-30.92-7.59a31.52 31.52 0 0 1-9.73-6.41c-6.64-6.66-5.91-15.71.27-22.32 5.19-5.55 11.31-10 16.83-15.23a50.45 50.45 0 0 0 7.25-8.2c4.48-6.55 4.3-13-.58-19.34C107.54 33 100.87 28.65 93.74 25c-12.11-6.3-25.06-10.29-38.19-13.75C38 6.61 20.05 3.5 2 .61z" fill="#a2cc25"></path></svg></svg> <!----></g></g> <g transform="translate(67,2.2510414123535156)"><g data-gra="path-name" fill-rule="" class="tp-name iconsvg-namesvg" transform="translate(0,0)"><g transform="scale(1)"><g><path d="M17.5-35.95L24.03-35.95 24.03-32.98 38.34-32.98 38.34-23.76 31.81-23.76 31.81-26.91 9.9-26.91 9.9-23.76 3.38-23.76 3.38-32.98 17.5-32.98 17.5-35.95ZM18.18 3.6L18.18-15.93 4.18-15.93 4.18-22 37.62-22 37.62-15.93 24.7-15.93 24.7 3.6 18.18 3.6ZM80.05-11.07L74.61-6.3 81.31-0.58 77.26 4.23 69.84-2.11 63.18 3.73 59.89-0.18 59.89 3.55 53.37 3.55 53.37-33.44 64.39-33.44 64.39-36 70.92-36 70.92-33.44 80.73-33.44 80.73-22.81 74.25-22.81 74.25-27.36 70.65-27.36 70.65-21.29 80.05-21.29 80.05-11.07ZM51.52-35.95L51.52-27.4 45-27.4 45-35.95 51.52-35.95ZM59.89-21.29L64.39-21.29 64.39-27.36 59.89-27.36 59.89-21.29ZM51.52-25.88L51.52-17.32 45-17.32 45-25.88 51.52-25.88ZM51.52-15.66L51.52 3.69 45 3.69 45-15.66 51.52-15.66ZM73.53-15.21L59.89-15.21 59.89-1.84 64.98-6.3 60.39-10.21 64.44-14.98 69.75-10.44 73.53-13.77 73.53-15.21ZM107.64-35.95L107.64 3.69 101.11 3.69 101.11-35.95 107.64-35.95ZM94.32-28.93L94.32-4.18 88.02-4.18 88.02-28.93 94.32-28.93ZM120.73-28.93L120.73-4.18 114.43-4.18 114.43-28.93 120.73-28.93ZM140.8-7.83L139.36-7.83 139.36-3.19 140.08-2.7 163.93-2.7 163.93 3.28 138.28 3.28 132.66-0.36 132.66 3.28 128.07 3.28 128.07-15.75 132.66-15.75 132.66-7.79 133.51-7.2 133.51-17.55 127.8-17.55 127.8-23.63 131.26-23.63 131.26-26.59 128.29-26.59 128.29-32.58 131.26-32.58 131.26-35.95 137.56-35.95 137.56-32.58 140.31-32.58 140.31-26.59 137.56-26.59 137.56-23.63 140.8-23.63 140.8-17.55 139.36-17.55 139.36-13.81 140.8-13.81 140.8-7.83ZM141.3-5.76L141.3-11.61 142.06-11.61 142.06-29.38 141.07-29.38 141.07-35.23 153.4-35.23 153.4-29.38 152.77-29.38 152.77-11.61 154.03-11.61 154.03-7.11 156.28-16.61 153.54-27.18 157.99-28.3 158.53-26.19 159.3-29.38 154.26-29.38 154.26-35.23 163.89-35.23 163.89-27.95 161.1-16.52 164.25-4.46 159.79-3.15 158.76-7.06 157.81-3.15 153.36-4.23 153.72-5.76 152.77-5.76 152.77-3.46 147.87-3.46 147.87-5.76 141.3-5.76ZM146.25-29.38L146.25-27.09 147.87-27.09 147.87-29.38 146.25-29.38ZM146.25-21.82L146.25-19.35 147.87-19.35 147.87-21.82 146.25-21.82ZM147.87-14.08L146.25-14.08 146.25-11.61 147.87-11.61 147.87-14.08Z" transform="translate(-3.380000114440918, 36)"></path></g> <!----> <!----> <!----> <!----> <!----> <!----> <!----></g></g> <g data-gra="path-slogan" fill-rule="" class="tp-slogan iconsvg-slogansvg" fill="#333" transform="translate(32.784996032714844,46.22999954223633)"><!----> <!----> <g transform="scale(1, 1)"><g transform="scale(1)"><path d="M2.30-8.58L6.61-1.64L6.61-8.58L7.73-8.58L7.73 0L6.42 0L2.06-6.94L2.02-6.94L2.02 0L0.89 0L0.89-8.58L2.30-8.58ZM9.70-8.58L10.88-8.58L10.88 0L9.70 0L9.70-8.58ZM14.25-8.58L18.56-1.64L18.56-8.58L19.69-8.58L19.69 0L18.38 0L14.02-6.94L13.97-6.94L13.97 0L12.84 0L12.84-8.58L14.25-8.58ZM27.89-3.61L25.27-3.61L25.27-4.59L29.02-4.59L29.02 0L28.27 0L27.98-1.08Q27 0.09 25.17 0.14L25.17 0.14Q23.44 0.14 22.50-0.75L22.50-0.75Q21.09-2.06 21.14-4.36L21.14-4.36Q21.47-8.63 25.22-8.81L25.22-8.81Q28.41-8.63 28.88-6L28.88-6L27.75-6Q27.28-7.78 25.17-7.83L25.17-7.83Q22.50-7.64 22.36-4.31L22.36-4.31Q22.36-0.75 25.22-0.75L25.22-0.75Q26.25-0.75 27-1.31L27-1.31Q27.94-2.06 27.89-3.61L27.89-3.61ZM34.03-7.64L31.97-7.64L31.97-4.97L34.03-4.97Q35.86-4.92 35.81-6.38L35.81-6.38Q35.81-7.64 34.03-7.64L34.03-7.64ZM34.50 0L30.80 0L30.80-8.58L34.59-8.58Q36.89-8.48 36.98-6.42L36.98-6.42Q36.98-5.16 35.86-4.64L35.86-4.64Q37.45-4.08 37.45-2.53L37.45-2.53Q37.31-0.09 34.50 0L34.50 0ZM34.22-3.98L31.97-3.98L31.97-0.98L34.45-0.98Q36.23-1.03 36.28-2.53L36.28-2.53Q36.28-3.98 34.22-3.98L34.22-3.98ZM45.56-4.27L45.56-4.27Q45.38-7.64 42.56-7.83L42.56-7.83Q39.70-7.69 39.56-4.27L39.56-4.27Q39.70-0.94 42.56-0.80L42.56-0.80Q45.38-0.98 45.56-4.27ZM46.73-4.27L46.73-4.27Q46.45 0 42.56 0.14L42.56 0.14Q38.63 0 38.34-4.27L38.34-4.27Q38.58-8.72 42.56-8.81L42.56-8.81Q46.45-8.67 46.73-4.27ZM58.17-8.58L55.27-4.41L58.31 0L56.86 0L54.52-3.52L52.17 0L50.77 0L53.86-4.41L50.95-8.58L52.41-8.58L54.56-5.30L56.77-8.58L58.17-8.58ZM59.58-8.58L60.75-8.58L60.75 0L59.58 0L59.58-8.58ZM68.39 0L67.55-2.48L64.08-2.48L63.19 0L62.02 0L65.25-8.58L66.56-8.58L69.66 0L68.39 0ZM65.81-7.31L64.45-3.52L67.13-3.52L65.86-7.31L65.81-7.31ZM77.48-4.27L77.48-4.27Q77.30-7.64 74.48-7.83L74.48-7.83Q71.63-7.69 71.48-4.27L71.48-4.27Q71.63-0.94 74.48-0.80L74.48-0.80Q77.30-0.98 77.48-4.27ZM78.66-4.27L78.66-4.27Q78.38 0 74.48 0.14L74.48 0.14Q70.55 0 70.27-4.27L70.27-4.27Q70.50-8.72 74.48-8.81L74.48-8.81Q78.38-8.67 78.66-4.27ZM85.03-1.08L84.14-1.78L84.75-2.48L85.83-1.64Q86.81-2.63 86.81-4.27L86.81-4.27Q86.63-7.64 83.81-7.83L83.81-7.83Q80.95-7.69 80.81-4.27L80.81-4.27Q80.95-0.94 83.81-0.80L83.81-0.80Q84.52-0.80 85.03-1.08L85.03-1.08ZM86.77-0.94L87.89-0.05L87.33 0.56L86.02-0.33Q85.17 0.14 83.81 0.14L83.81 0.14Q79.88 0 79.59-4.27L79.59-4.27Q79.83-8.72 83.81-8.81L83.81-8.81Q87.70-8.67 87.98-4.27L87.98-4.27Q87.94-2.20 86.77-0.94L86.77-0.94ZM95.02-3.19L95.02-8.58L96.19-8.58L96.19-3.05Q96.05 0.05 92.67 0.14L92.67 0.14Q89.53 0.05 89.39-2.86L89.39-2.86L89.39-8.58L90.56-8.58L90.56-3.19Q90.61-0.84 92.72-0.80L92.72-0.80Q95.02-0.84 95.02-3.19L95.02-3.19Z" transform="translate(-0.890625, 8.8125)"></path></g></g></g></g></g><defs v-gra="od"></defs></svg>